{
	"asset":{
		"generator":"Khronos glTF Blender I/O v4.0.44",
		"version":"2.0"
	},
	"scene":0,
	"scenes":[
		{
			"name":"Scene",
			"nodes":[
				0
			]
		}
	],
	"nodes":[
		{
			"mesh":0,
			"name":"Wood Desk",
			"translation":[
				-0.05932903289794922,
				0,
				-0.006077289581298828
			]
		}
	],
	"materials":[
		{
			"doubleSided":true,
			"name":"Material.002",
			"normalTexture":{
				"index":0
			},
			"pbrMetallicRoughness":{
				"baseColorTexture":{
					"index":1
				},
				"metallicRoughnessTexture":{
					"index":2
				}
			}
		}
	],
	"meshes":[
		{
			"name":"Desk_1.001",
			"primitives":[
				{
					"attributes":{
						"POSITION":0,
						"NORMAL":1,
						"TEXCOORD_0":2
					},
					"indices":3,
					"material":0
				}
			]
		}
	],
	"textures":[
		{
			"sampler":0,
			"source":0
		},
		{
			"sampler":0,
			"source":1
		},
		{
			"sampler":0,
			"source":2
		}
	],
	"images":[
		{
			"mimeType":"image/jpeg",
			"name":"Desk_1_Normal-1K",
			"uri":"Desk_1_Normal-1K.jpg"
		},
		{
			"mimeType":"image/jpeg",
			"name":"Desk_1_BaseColor-1K",
			"uri":"Desk_1_BaseColor-1K.jpg"
		},
		{
			"mimeType":"image/png",
			"name":"Desk_1_Metallic-1K.jpg-Desk_1_Roughness-1K.jpg",
			"uri":"Desk_1_Metallic-1K_jpg-Desk_1_Roughness-1K_jpg.png"
		}
	],
	"accessors":[
		{
			"bufferView":0,
			"componentType":5126,
			"count":58436,
			"max":[
				0.6559279561042786,
				0.6979345083236694,
				0.30103909969329834
			],
			"min":[
				-0.6559279561042786,
				1.6711603620933602e-06,
				-0.3177553117275238
			],
			"type":"VEC3"
		},
		{
			"bufferView":1,
			"componentType":5126,
			"count":58436,
			"type":"VEC3"
		},
		{
			"bufferView":2,
			"componentType":5126,
			"count":58436,
			"type":"VEC2"
		},
		{
			"bufferView":3,
			"componentType":5123,
			"count":297294,
			"type":"SCALAR"
		}
	],
	"bufferViews":[
		{
			"buffer":0,
			"byteLength":701232,
			"byteOffset":0,
			"target":34962
		},
		{
			"buffer":0,
			"byteLength":701232,
			"byteOffset":701232,
			"target":34962
		},
		{
			"buffer":0,
			"byteLength":467488,
			"byteOffset":1402464,
			"target":34962
		},
		{
			"buffer":0,
			"byteLength":594588,
			"byteOffset":1869952,
			"target":34963
		}
	],
	"samplers":[
		{
			"magFilter":9729,
			"minFilter":9987
		}
	],
	"buffers":[
		{
			"byteLength":2464540,
			"uri":"desk2d.bin"
		}
	]
}
